<svg viewBox="0 0 2000 1400" xmlns="http://www.w3.org/2000/svg"><path fill="none" d="M0 0h2000v1400H0z"/><rect x="1613" y="1335" width="7" height="9" fill="#3D2C8D" rx="0" transform="matrix(-.6861 .32682 -.94816 -1.00586 4648.524 2715.142)"/><rect x="1072" y="1362" width="10" height="16" fill="#C996CC" rx="0" transform="matrix(-.87462 .28289 -.48481 -.98655 2683.155 2665.544)"/><rect x="1936" y="832" width="13" height="23" fill="#3D2C8D" rx="0" transform="matrix(-.9501 .01825 -.36381 -1.04553 4170.274 2283.838)"/><rect x="806" y="536" width="8" height="14" fill="#916BBF" rx="0" transform="matrix(.81644 .7771 -.5517 .6997 406.824 -218.749)"/><rect x="1592" y="981" width="7" height="18" fill="#1C0C5B" rx="0" transform="matrix(1.00236 .29242 -.14122 .95645 279.092 -395.586)"/><rect x="683" y="1052" width="12" height="22" fill="#916BBF" rx="0" transform="matrix(-.03348 1.00137 -.99629 -.07002 1894.24 387.208)"/><rect x="1301" y="913" width="10" height="16" fill="#3D2C8D" rx="0" transform="matrix(.69054 .71242 -.71313 .71242 1140.897 -825.91)"/><rect x="273" y="896" width="9" height="16" fill="#1C0C5B" rx="0" transform="matrix(-.38385 .83342 -.89999 -.65114 1127.71 1356.905)"/><rect x="675" y="940" width="10" height="29" fill="#916BBF" rx="0" transform="matrix(.77669 1.04123 -.85125 .14634 1346.293 327.732)"/><rect x="460" y="1350" width="12" height="29" fill="#1C0C5B" rx="0" transform="matrix(-.92624 .22509 -.43073 -.97496 1728.827 2606.22)"/><rect x="943" y="297" width="9" height="18" fill="#3D2C8D" rx="0" transform="matrix(1.09159 .45965 -.03321 .90211 62.82 -255.495)"/><rect x="76" y="1118" width="12" height="12" fill="#3D2C8D" rx="0" transform="matrix(.98448 .77781 -.42986 .67614 727.692 320.679)"/><rect x="1162" y="712" width="13" height="37" fill="#916BBF" rx="0" transform="matrix(.97074 .07044 -.31379 1.00737 203.891 -251.916)"/><rect x="1601" y="64" width="10" height="17" fill="#1C0C5B" rx="0" transform="matrix(.49358 .9926 -.8935 .22916 911.746 -1226.066)"/><rect x="1260" y="953" width="8" height="17" fill="#1C0C5B" rx="0" transform="matrix(-.77757 .33869 -.69435 -.98362 3077.022 1841.597)"/><rect x="1853" y="48" width="12" height="32" fill="#1C0C5B" rx="0" transform="matrix(.13442 .94454 -1.11303 -.38162 1826.805 -1306.119)"/><rect x="1038" y="614" width="8" height="12" fill="#916BBF" rx="0" transform="matrix(1.0536 .24192 .09218 .9703 100.486 -233.666)"/><rect x="317" y="1141" width="9" height="14" fill="#1C0C5B" rx="0" transform="matrix(-.99573 .5189 -.26996 -.8636 775.963 1933.114)"/><rect x="1220" y="1357" width="10" height="17" fill="#C996CC" rx="0" transform="matrix(-.82316 .67076 -.57662 -.74496 2953.677 1475.395)"/><rect x="1322" y="1149" width="10" height="28" fill="#3D2C8D" rx="0" transform="matrix(.79408 .71802 -.59865 .71802 920.704 -390.872)"/><rect x="955" y="417" width="9" height="13" fill="#1C0C5B" rx="0" transform="matrix(-.97998 .1051 -.19046 -1 1971.299 847)"/><rect x="262" y="682" width="8" height="14" fill="#916BBF" rx="0" transform="matrix(.05261 .99042 -1.00228 .1392 894.72 325)"/><rect x="1404" y="183" width="10" height="25" fill="#C996CC" rx="0" transform="matrix(.29362 1.02999 -.96063 .03597 1192.644 -911.479)"/><rect x="172" y="93" width="9" height="9" fill="#C996CC" rx="0" transform="matrix(.96735 .15797 -.22263 .9974 32.552 -52.433)"/><rect x="190" y="662" width="9" height="13" fill="#916BBF" rx="0" transform="matrix(-.95681 .17375 -.3289 -.9854 683.388 1300.242)"/><rect x="646" y="1136" width="12" height="14" fill="#1C0C5B" rx="0" transform="matrix(.13724 1.02218 -.9807 -.01784 1616.286 635.516)"/><rect x="154" y="483" width="7" height="13" fill="#3D2C8D" rx="0" transform="matrix(-.90833 .29398 -.43056 -.96157 629.238 897.334)"/><rect x="150" y="862" width="10" height="27" fill="#3D2C8D" rx="0" transform="matrix(-1.00567 .17375 -.05184 -.9854 216.74 1716.706)"/><rect x="637" y="1128" width="12" height="23" fill="#C996CC" rx="0" transform="matrix(-.90536 .25917 -.47957 -.96725 1978.48 2108.732)"/><rect x="596" y="1182" width="11" height="22" fill="#3D2C8D" rx="0" transform="matrix(-.2932 .92764 -.94747 -.41301 2219.86 1021.687)"/><rect x="210" y="723" width="11" height="13" fill="#1C0C5B" rx="0" transform="matrix(-.12095 .96788 -.98185 -.41084 929.904 890.65)"/><rect x="521" y="1334" width="9" height="16" fill="#1C0C5B" rx="0" transform="matrix(.97787 .50623 -.28166 .87682 514.303 -17.487)"/><rect x="1026" y="435" width="9" height="25" fill="#C996CC" rx="0" transform="matrix(-.98386 .25886 -.1913 -.96607 2107.463 595.077)"/><rect x="161" y="704" width="7" height="17" fill="#916BBF" rx="0" transform="matrix(-.41767 .73685 -.96765 -.68712 1091.815 1101.06)"/><rect x="13" y="821" width="10" height="12" fill="#1C0C5B" rx="0" transform="matrix(-.88842 .22509 -.59453 -.97496 810.64 1629.872)"/><rect x="900" y="1278" width="13" height="20" fill="#3D2C8D" rx="0" transform="matrix(.91413 .6031 -.3526 .8613 421.326 -73.529)"/><rect x="151" y="1069" width="9" height="19" fill="#3D2C8D" rx="0" transform="matrix(.78801 .54672 -.61566 .84187 696.955 71.92)"/><rect x="302" y="1334" width="11" height="24" fill="#916BBF" rx="0" transform="matrix(.3798 1.0345 -1.04737 -.2199 1962.467 1429.743)"/><rect x="544" y="329" width="8" height="22" fill="#1C0C5B" rx="0" transform="matrix(.62235 .95481 -.83304 .32877 563.716 -218)"/><rect x="1681" y="673" width="7" height="10" fill="#1C0C5B" rx="0" transform="matrix(.87986 .64318 -.5062 .76651 677.197 -983.954)"/><rect x="1722" y="1134" width="10" height="21" fill="#3D2C8D" rx="0" transform="matrix(1.01255 .37483 -.16168 .92775 397.559 -504.34)"/><rect x="1817" y="1154" width="9" height="25" fill="#3D2C8D" rx="0" transform="matrix(-.9434 .31134 -.30846 -.9582 4015.49 1493.485)"/><rect x="266" y="366" width="7" height="9" fill="#C996CC" rx="0" transform="matrix(-.9301 .17407 -.46984 -.98721 784.126 708.195)"/><rect x="1446" y="257" width="7" height="14" fill="#1C0C5B" rx="0" transform="matrix(-.32337 .76792 -1.03089 -.64436 2316.183 -577.624)"/><rect x="1833" y="1364" width="8" height="14" fill="#916BBF" rx="0" transform="matrix(.54754 .76792 -.84279 .64436 1921.51 -1051.53)"/><rect x="296" y="413" width="8" height="11" fill="#916BBF" rx="0" transform="matrix(-.92749 .19154 -.44939 -.98538 844.735 799.665)"/><rect x="1068" y="152" width="11" height="30" fill="#916BBF" rx="0" transform="matrix(.4369 .8636 -.89542 .5189 755.259 -978.546)"/><rect x="1055" y="125" width="9" height="14" fill="#916BBF" rx="0" transform="matrix(-.24518 .99772 -.98514 -.06977 1431.328 -934.364)"/><rect x="1302" y="1218" width="12" height="31" fill="#916BBF" rx="0" transform="matrix(-.85392 .24645 -.63272 -.98846 3521.624 2384.654)"/><rect x="713" y="1030" width="10" height="22" fill="#3D2C8D" rx="0" transform="matrix(-.81819 .55996 -.57282 -.83018 1864.104 1540.79)"/><rect x="352" y="630" width="7" height="13" fill="#916BBF" rx="0" transform="matrix(.96912 -.10614 .20084 1.00986 36.898 -31.23)"/><rect x="576" y="75" width="7" height="7" fill="#C996CC" rx="0" transform="matrix(-.42554 .9512 -.91303 -.30906 890.588 -458.575)"/><rect x="680" y="740" width="11" height="24" fill="#916BBF" rx="0" transform="matrix(.76941 .55953 -.6465 .82954 535.189 -231.438)"/><rect x="1715" y="1068" width="7" height="20" fill="#C996CC" rx="0" transform="matrix(.42034 .98054 -.9305 .20842 2273.888 -951.897)"/><rect x="695" y="28" width="7" height="20" fill="#3D2C8D" rx="0" transform="matrix(.53689 1.03996 -.90514 .1093 393.232 -479.015)"/><rect x="1484" y="289" width="9" height="21" fill="#C996CC" rx="0" transform="matrix(.83442 .62607 -.48996 .83082 278.169 -454.412)"/><rect x="1811" y="987" width="8" height="12" fill="#3D2C8D" rx="0" transform="matrix(.7261 .80059 -.70193 .60328 1292.122 -932.207)"/><rect x="1385" y="449" width="11" height="11" fill="#916BBF" rx="0" transform="matrix(.3229 .98652 -.93912 .22776 1332.969 -800.531)"/><rect x="1102" y="1198" width="13" height="23" fill="#3D2C8D" rx="0" transform="matrix(.2272 1.02172 -.98668 -.03568 2125.777 355.699)"/><rect x="1274" y="89" width="7" height="18" fill="#C996CC" rx="0" transform="matrix(.84972 .97756 -.71368 .3558 386.334 -819.387)"/><rect x="785" y="610" width="13" height="37" fill="#3D2C8D" rx="0" transform="matrix(.77715 .67005 -.62932 .74416 571.917 -328.07)"/><rect x="507" y="107" width="8" height="16" fill="#916BBF" rx="0" transform="matrix(.48505 1.01856 -.99024 -.01778 442.542 -304.112)"/><rect x="1719" y="54" width="9" height="19" fill="#916BBF" rx="0" transform="matrix(.86967 .61905 -.50225 .79235 265.067 -872.605)"/><rect x="645" y="388" width="9" height="24" fill="#C996CC" rx="0" transform="matrix(.89016 .63279 -.39904 .83974 177.499 -135.853)"/><rect x="329" y="722" width="13" height="35" fill="#916BBF" rx="0" transform="matrix(.30826 .91 -.94856 .44384 945.519 52.841)"/><rect x="1597" y="504" width="11" height="18" fill="#3D2C8D" rx="0" transform="matrix(-.6768 .44437 -.799 -.95295 3223.87 810.448)"/><rect x="1588" y="204" width="9" height="26" fill="#916BBF" rx="0" transform="matrix(.96953 .28408 -.13903 .99069 14.147 -53.315)"/><rect x="1734" y="654" width="7" height="19" fill="#C996CC" rx="0" transform="matrix(.7188 .67005 -.69412 .74416 959.12 -1085.522)"/><rect x="863" y="89" width="12" height="16" fill="#1C0C5B" rx="0" transform="matrix(-.56396 .69731 -.85008 -.72209 1447.948 -514.95)"/><rect x="207" y="1193" width="11" height="31" fill="#916BBF" rx="0" transform="matrix(-.91818 .07335 -.5034 -1.0489 1172.83 2529.556)"/><rect x="1875" y="961" width="9" height="22" fill="#3D2C8D" rx="0" transform="matrix(1.09924 .31715 .22999 .97607 46.736 -138.901)"/><rect x="942" y="217" width="9" height="20" fill="#3D2C8D" rx="0" transform="matrix(-.30987 1.00261 -.95385 -.1409 1454.971 -839.897)"/><rect x="679" y="830" width="12" height="27" fill="#916BBF" rx="0" transform="matrix(-.70953 .3678 -.87051 -.95814 2230.76 1557.894)"/><rect x="914" y="774" width="13" height="13" fill="#1C0C5B" rx="0" transform="matrix(.91434 .29255 -.42754 .95689 269.256 -203.498)"/><rect x="324" y="475" width="9" height="26" fill="#3D2C8D" rx="0" transform="matrix(-.62371 .87475 -.79745 -.48488 835.487 443)"/><rect x="1546" y="768" width="9" height="13" fill="#916BBF" rx="0" transform="matrix(-.34435 .97452 -.94665 -.22499 2739.032 -589.304)"/><rect x="45" y="914" width="10" height="27" fill="#C996CC" rx="0" transform="matrix(-.97237 .01778 -.53886 -1.01856 902.934 1881.046)"/><rect x="802" y="1253" width="13" height="27" fill="#1C0C5B" rx="0" transform="matrix(.97429 .2087 -.20777 .98188 166.94 -75.06)"/><rect x="401" y="875" width="10" height="14" fill="#1C0C5B" rx="0" transform="matrix(-.98362 .05234 -.33869 -.99863 1356.983 1741.543)"/><rect x="515" y="1346" width="9" height="19" fill="#916BBF" rx="0" transform="matrix(.43621 .77904 -.93039 .63086 1321.426 59.333)"/><rect x="1356" y="1244" width="10" height="19" fill="#C996CC" rx="0" transform="matrix(.93263 .84598 -.50447 .61464 988.482 -252.237)"/><rect x="1222" y="826" width="9" height="9" fill="#1C0C5B" rx="0" transform="matrix(-.76082 .5189 -.66092 -.8636 2759.953 1061.88)"/><rect x="1132" y="972" width="10" height="10" fill="#3D2C8D" rx="0" transform="matrix(1.04054 .2646 .10407 .9875 45.252 -46.967)"/><rect x="51" y="971" width="8" height="20" fill="#3D2C8D" rx="0" transform="matrix(.3633 .9757 -.94102 .22526 1148.287 703.474)"/><rect x="772" y="333" width="11" height="21" fill="#1C0C5B" rx="0" transform="matrix(.94337 .74724 -.48885 .67282 325.89 -386.872)"/><rect x="421" y="646" width="8" height="20" fill="#1C0C5B" rx="0" transform="matrix(-.20842 .99027 -.98054 -.13917 1110.938 326.434)"/><rect x="1491" y="1251" width="13" height="36" fill="#3D2C8D" rx="0" transform="matrix(-.42941 .97089 -.92292 -.24207 3119.023 69.989)"/><rect x="318" y="1282" width="13" height="24" fill="#1C0C5B" rx="0" transform="matrix(.9592 .22776 -.23596 .98652 493.212 -107.854)"/><rect x="618" y="141" width="7" height="7" fill="#C996CC" rx="0" transform="matrix(.24124 .96656 -.96543 .27716 616.612 -561.586)"/><rect x="1824" y="188" width="12" height="33" fill="#1C0C5B" rx="0" transform="matrix(.00237 1.01185 -.9882 .03533 2017.272 -1944.252)"/><rect x="1676" y="560" width="12" height="16" fill="#3D2C8D" rx="0" transform="matrix(.2288 .92065 -.98908 .3908 1773.659 -1231.854)"/><rect x="1989" y="309" width="12" height="16" fill="#1C0C5B" rx="0" transform="matrix(-1.00416 .0349 .10598 -.99954 3908.977 599.043)"/><rect x="1549" y="1153" width="8" height="17" fill="#1C0C5B" rx="0" transform="matrix(.93511 .61765 -.37811 .81964 593.028 -391.18)"/><rect x="1416" y="414" width="7" height="12" fill="#1C0C5B" rx="0" transform="matrix(.2104 1.01185 -.99564 -.03533 1595.428 -776.652)"/><rect x="1726" y="1046" width="10" height="14" fill="#1C0C5B" rx="0" transform="matrix(.72903 .73538 -.68 .68575 1141.972 -760.111)"/><rect x="331" y="358" width="11" height="28" fill="#1C0C5B" rx="0" transform="matrix(.86112 .62516 -.49741 .80017 216.71 -76.694)"/><rect x="1473" y="369" width="7" height="19" fill="#916BBF" rx="0" transform="matrix(.9622 .54539 -.35192 .83982 269.408 -667.255)"/><rect x="889" y="851" width="10" height="23" fill="#1C0C5B" rx="0" transform="matrix(-1.01165 .12189 .03499 -.9927 1649.218 1594.129)"/><rect x="1301" y="428" width="8" height="10" fill="#1C0C5B" rx="0" transform="matrix(.99755 .01746 -.14054 1 0 0)"/><rect x="875" y="1104" width="13" height="33" fill="#1C0C5B" rx="0" transform="matrix(.11832 .9514 -1.09414 -.34628 2412.622 809.462)"/><rect x="246" y="553" width="11" height="17" fill="#3D2C8D" rx="0" transform="matrix(-.02064 1.01404 -.98508 -.05314 724.667 380.656)"/><rect x="173" y="561" width="8" height="13" fill="#916BBF" rx="0" transform="matrix(.86129 .64761 -.51769 .7718 338.916 36.61)"/><rect x="262" y="677" width="12" height="32" fill="#916BBF" rx="0" transform="matrix(-.467 .94522 -.8787 -.36284 1024.808 648.68)"/><rect x="1091" y="580" width="7" height="14" fill="#1C0C5B" rx="0" transform="matrix(-.90313 .19224 -.5556 -.989 2588.971 1091.521)"/><rect x="15" y="358" width="8" height="15" fill="#916BBF" rx="0" transform="matrix(-.81216 .46789 -.5433 -.91828 187.55 696.98)"/><rect x="1575" y="35" width="12" height="27" fill="#1C0C5B" rx="0" transform="matrix(-.2814 .80094 -1.02067 -.64859 2153.44 -792.138)"/><rect x="20" y="564" width="7" height="17" fill="#3D2C8D" rx="0" transform="matrix(.12598 .97496 -1.05476 -.22509 810.674 679.272)"/><rect x="1706" y="854" width="10" height="13" fill="#C996CC" rx="0" transform="matrix(1.00628 .05237 .10524 .99924 11.694 -29.196)"/><rect x="299" y="870" width="10" height="16" fill="#916BBF" rx="0" transform="matrix(-.56713 .51117 -.97399 -.88537 1656.14 1564.579)"/><rect x="1018" y="783" width="12" height="27" fill="#916BBF" rx="0" transform="matrix(.29237 .94098 -.9563 .34249 1486.308 -493.524)"/><rect x="503" y="1249" width="12" height="29" fill="#1C0C5B" rx="0" transform="matrix(-1.0068 .15646 -.03482 -.98784 886.628 2440.882)"/><rect x="978" y="1331" width="9" height="22" fill="#3D2C8D" rx="0" transform="matrix(-.77288 .4574 -.66942 -.8977 2819.796 2217.95)"/><rect x="673" y="1017" width="11" height="30" fill="#916BBF" rx="0" transform="matrix(-.39484 .811 -.94619 -.58922 2223.874 1042.372)"/><rect x="1710" y="827" width="11" height="19" fill="#3D2C8D" rx="0" transform="matrix(.1051 1 -1.03213 -.30573 2541.618 -98.775)"/><rect x="823" y="478" width="13" height="24" fill="#C996CC" rx="0" transform="matrix(-.3205 .9406 -.94013 -.36106 1617.494 -215.151)"/><rect x="672" y="767" width="11" height="16" fill="#916BBF" rx="0" transform="matrix(.966 .17375 -.27682 .9854 185.032 -130.068)"/><rect x="1428" y="543" width="11" height="16" fill="#3D2C8D" rx="0" transform="matrix(.02579 .93828 -1.0778 -.43753 2189.166 -168.84)"/><rect x="1218" y="1271" width="8" height="14" fill="#916BBF" rx="0" transform="matrix(.93862 .83937 -.55826 .56616 1238.36 -277.723)"/><rect x="400" y="504" width="10" height="29" fill="#3D2C8D" rx="0" transform="matrix(.08708 .99023 -1.02522 -.1746 990.172 250.556)"/><rect x="184" y="1331" width="11" height="32" fill="#1C0C5B" rx="0" transform="matrix(-.94772 .27835 -.28755 -.9707 587.76 2628.43)"/><rect x="1326" y="1158" width="9" height="11" fill="#1C0C5B" rx="0" transform="matrix(-.713 .6508 -.68685 -.7756 2958.067 1410.744)"/><rect x="982" y="558" width="7" height="16" fill="#3D2C8D" rx="0" transform="matrix(.35296 .99614 -.92239 .22998 1105.502 -336.386)"/><rect x="478" y="1096" width="7" height="9" fill="#3D2C8D" rx="0" transform="matrix(.3002 1.00229 -.99248 .0175 1670.25 632.314)"/><rect x="328" y="975" width="10" height="19" fill="#3D2C8D" rx="0" transform="matrix(-.7929 .41301 -.64035 -.92764 1318.732 1818.944)"/><rect x="1344" y="533" width="7" height="11" fill="#916BBF" rx="0" transform="matrix(-.27926 .89893 -.97623 -.43844 2349.6 -460.231)"/><rect x="149" y="849" width="9" height="9" fill="#C996CC" rx="0" transform="matrix(.89163 .64318 -.49217 .76651 632.508 95.194)"/><rect x="1342" y="457" width="11" height="13" fill="#916BBF" rx="0" transform="matrix(.09816 .9479 -1.09462 -.38298 1937.628 -349.863)"/><rect x="285" y="928" width="13" height="29" fill="#C996CC" rx="0" transform="matrix(.23598 .99677 -.95737 .19375 1002.998 520.729)"/><rect x="1650" y="240" width="8" height="16" fill="#1C0C5B" rx="0" transform="matrix(.51807 1.03061 -.9703 0 1214.69 -1044.246)"/><rect x="1737" y="323" width="7" height="20" fill="#3D2C8D" rx="0" transform="matrix(1.08362 .29525 .15734 .9657 -10.257 -257.842)"/><rect x="354" y="633" width="8" height="12" fill="#916BBF" rx="0" transform="matrix(-.42702 .74264 -.94835 -.69252 1228.077 878.781)"/><rect x="1009" y="292" width="9" height="26" fill="#C996CC" rx="0" transform="matrix(.06382 .95529 -1.07522 -.42532 1396.277 -223.602)"/><rect x="1972" y="1105" width="8" height="21" fill="#3D2C8D" rx="0" transform="matrix(-.1581 1.00986 -1.00685 .10614 3344.452 -1346.814)"/><rect x="1547" y="867" width="10" height="19" fill="#C996CC" rx="0" transform="matrix(-.98296 .03524 -.22654 -1.00921 3333.483 1924.498)"/><rect x="237" y="405" width="11" height="13" fill="#916BBF" rx="0" transform="matrix(.71687 .72209 -.6926 .69731 330.989 -29.334)"/><rect x="1705" y="244" width="10" height="27" fill="#1C0C5B" rx="0" transform="matrix(-.08698 .9922 -.99252 -.17495 2097.993 -1184.156)"/><rect x="867" y="733" width="12" height="13" fill="#C996CC" rx="0" transform="matrix(.99462 .07063 .06466 1.01 129.278 -207.32)"/><rect x="1194" y="565" width="9" height="10" fill="#916BBF" rx="0" transform="matrix(.89184 .55 -.4449 .84691 483.346 -740.343)"/><rect x="1365" y="1282" width="10" height="11" fill="#C996CC" rx="0" transform="matrix(-.88835 .29242 -.5141 -.95645 3564.006 2094.406)"/><rect x="1067" y="596" width="13" height="25" fill="#3D2C8D" rx="0" transform="matrix(-.76447 .67169 -.63976 -.74598 2197.207 435.295)"/><rect x="918" y="537" width="12" height="32" fill="#3D2C8D" rx="0" transform="matrix(.5222 .96725 -.89394 .25917 1099.79 -532.488)"/><rect x="1633" y="968" width="11" height="26" fill="#916BBF" rx="0" transform="matrix(.17391 1.00137 -.98647 .07002 2340.892 -585.095)"/><rect x="499" y="1263" width="8" height="10" fill="#916BBF" rx="0" transform="matrix(1.0041 .08728 .01883 .99756 170.728 -67.169)"/><rect x="1896" y="572" width="8" height="17" fill="#916BBF" rx="0" transform="matrix(-.4345 .72474 -.96021 -.69988 3470.824 -156.941)"/><rect x="1638" y="514" width="9" height="13" fill="#916BBF" rx="0" transform="matrix(-.74927 .51315 -.65096 -.8888 3180.588 519.472)"/><rect x="1912" y="603" width="11" height="24" fill="#916BBF" rx="0" transform="matrix(.7734 .63903 -.6098 .78913 658.558 -757.548)"/><rect x="471" y="911" width="9" height="15" fill="#3D2C8D" rx="0" transform="matrix(1.03275 .7171 -.28702 .769 437.258 25.702)"/><rect x="1922" y="82" width="9" height="21" fill="#1C0C5B" rx="0" transform="matrix(.82801 .91963 -.62842 .50976 464.98 -1100.361)"/><rect x="1395" y="258" width="9" height="22" fill="#916BBF" rx="0" transform="matrix(.2348 1.00137 -.99863 0 1395.628 -1205.765)"/><rect x="1578" y="228" width="9" height="9" fill="#3D2C8D" rx="0" transform="matrix(.67904 .94149 -.7878 .38039 772.109 -1066.806)"/><rect x="883" y="1063" width="7" height="10" fill="#3D2C8D" rx="0" transform="matrix(-.57135 .87253 -.81623 -.50375 2298.223 723.665)"/><rect x="841" y="102" width="11" height="14" fill="#3D2C8D" rx="0" transform="matrix(-.10809 1.00861 -.982 -.08824 1002.176 -601.1)"/><rect x="1589" y="464" width="12" height="32" fill="#1C0C5B" rx="0" transform="matrix(-.87904 .19507 -.60404 -1.00356 3461.101 989.596)"/><rect x="1379" y="231" width="10" height="24" fill="#916BBF" rx="0" transform="matrix(.9599 .60182 -.38782 .79864 214.863 -783.98)"/><rect x="1274" y="1208" width="9" height="25" fill="#C996CC" rx="0" transform="matrix(-.33358 .85769 -.96549 -.51535 3106.437 797.577)"/><rect x="190" y="181" width="9" height="16" fill="#3D2C8D" rx="0" transform="matrix(.2924 .9614 -.9563 .27568 324.852 -53.492)"/><rect x="34" y="568" width="9" height="13" fill="#3D2C8D" rx="0" transform="matrix(1.05656 .63279 -.27557 .78143 355.348 105.255)"/><rect x="520" y="1294" width="7" height="19" fill="#916BBF" rx="0" transform="matrix(.64765 .6821 -.77154 .73147 1054.114 -16.183)"/><rect x="1651" y="446" width="7" height="19" fill="#3D2C8D" rx="0" transform="matrix(-.89334 .42495 -.43746 -.9113 3366.374 -6.371)"/><rect x="332" y="378" width="10" height="29" fill="#916BBF" rx="0" transform="matrix(-.08504 .98054 -1.00177 -.20842 830.569 120.299)"/><rect x="1321" y="1332" width="8" height="18" fill="#916BBF" rx="0" transform="matrix(-.90757 .30906 -.44236 -.9512 3288.23 2230.18)"/><rect x="859" y="524" width="12" height="20" fill="#3D2C8D" rx="0" transform="matrix(.52858 .7756 -.8458 .6508 866.373 -621.418)"/><rect x="1009" y="491" width="12" height="33" fill="#916BBF" rx="0" transform="matrix(1.01586 .37604 -.14496 .93073 151.91 -257.72)"/><rect x="177" y="64" width="10" height="29" fill="#3D2C8D" rx="0" transform="matrix(-.7878 .63716 -.59661 -.78683 378.311 -4.524)"/><rect x="916" y="350" width="13" height="33" fill="#C996CC" rx="0" transform="matrix(.96308 -.10614 .25837 1.00986 5.6 -68.362)"/><rect x="1801" y="473" width="10" height="27" fill="#3D2C8D" rx="0" transform="matrix(-.21924 .81213 -1.06003 -.6345 2933.929 -221.24)"/><rect x="983" y="739" width="7" height="14" fill="#916BBF" rx="0" transform="matrix(-.61782 .71592 -.75702 -.74136 2038.923 838.758)"/><rect x="1847" y="1252" width="11" height="11" fill="#916BBF" rx="0" transform="matrix(.96705 .1397 -.27705 .99405 352.02 -413.395)"/><rect x="1919" y="460" width="12" height="16" fill="#1C0C5B" rx="0" transform="matrix(.88613 .57577 -.47129 .82228 461.982 -856.764)"/><rect x="210" y="552" width="7" height="14" fill="#916BBF" rx="0" transform="matrix(-.97183 .1046 -.31464 -.99513 696.75 1100.402)"/><rect x="1181" y="1358" width="8" height="17" fill="#3D2C8D" rx="0" transform="matrix(-.22916 .91355 -.9926 -.40674 3078.574 839.754)"/><rect x="1461" y="604" width="13" height="28" fill="#916BBF" rx="0" transform="matrix(.68108 .6846 -.73033 .73415 927.905 -968.748)"/><rect x="1026" y="956" width="13" height="13" fill="#3D2C8D" rx="0" transform="matrix(-.8562 .72209 -.55806 -.69731 2331.074 797.775)"/><rect x="374" y="626" width="10" height="19" fill="#3D2C8D" rx="0" transform="matrix(-.49243 .7731 -.85012 -.6961 1053.844 893.543)"/><rect x="1732" y="1340" width="13" height="25" fill="#C996CC" rx="0" transform="matrix(1.10351 .65808 -.15686 .81266 537.008 -359.167)"/><rect x="1849" y="1329" width="9" height="14" fill="#916BBF" rx="0" transform="matrix(.96435 .461 -.27658 .90475 464.61 -400.379)"/><rect x="842" y="701" width="12" height="33" fill="#3D2C8D" rx="0" transform="matrix(-.12187 .97974 -.99255 -.22619 1663.497 138.103)"/><rect x="703" y="743" width="9" height="22" fill="#C996CC" rx="0" transform="matrix(-.86782 .21629 -.54063 -1.01757 1796.028 1571.092)"/><rect x="1705" y="937" width="12" height="34" fill="#916BBF" rx="0" transform="matrix(.47435 1.00518 -.85883 .28823 1615.418 -517.737)"/><rect x="1942" y="940" width="9" height="11" fill="#1C0C5B" rx="0" transform="matrix(-.5159 .71945 -.89175 -.69476 4019.982 235.968)"/><rect x="1014" y="611" width="8" height="19" fill="#1C0C5B" rx="0" transform="matrix(.00614 1.04733 -.95567 -.1472 1433.53 -3.822)"/><rect x="1070" y="717" width="7" height="18" fill="#1C0C5B" rx="0" transform="matrix(-.98144 .29255 -.20808 -.95689 2184.394 1144.136)"/><rect x="251" y="605" width="12" height="28" fill="#3D2C8D" rx="0" transform="matrix(1.0117 .0698 .1411 .99817 20.378 -7.832)"/><rect x="1459" y="975" width="8" height="9" fill="#1C0C5B" rx="0" transform="matrix(.9007 .46413 -.38684 .91091 342.827 -280.795)"/><rect x="1303" y="917" width="11" height="30" fill="#C996CC" rx="0" transform="matrix(.79816 .90093 -.64915 .52015 983.481 -356.435)"/><rect x="1415" y="326" width="13" height="32" fill="#916BBF" rx="0" transform="matrix(1.05863 .68673 -.28045 .7627 192.146 -566.85)"/><rect x="699" y="1248" width="10" height="23" fill="#3D2C8D" rx="0" transform="matrix(-.55557 .72474 -.8433 -.69988 2515.89 1544.334)"/><rect x="878" y="1148" width="9" height="21" fill="#1C0C5B" rx="0" transform="matrix(.97541 .15665 -.22518 .98904 263.15 -171.8)"/><rect x="1759" y="991" width="13" height="35" fill="#C996CC" rx="0" transform="matrix(-.73962 .34433 -.7562 -1 4061.098 2017)"/><rect x="1464" y="1185" width="10" height="24" fill="#C996CC" rx="0" transform="matrix(.91239 .2598 -.44393 .96962 547.789 -473.808)"/><rect x="1375" y="986" width="8" height="8" fill="#1C0C5B" rx="0" transform="matrix(.81187 .73236 -.60838 .68293 1073.605 -768.296)"/><rect x="907" y="93" width="12" height="16" fill="#C996CC" rx="0" transform="matrix(1.06813 .34842 .06457 .95728 -4.433 -136.325)"/><rect x="1738" y="930" width="12" height="34" fill="#916BBF" rx="0" transform="matrix(-.98194 .01772 -.17309 -1.01527 3598.513 2185.07)"/><rect x="1767" y="1158" width="12" height="19" fill="#1C0C5B" rx="0" transform="matrix(-.98848 -.07378 -.58138 -1.05504 4747.924 3140.562)"/><rect x="885" y="1068" width="9" height="24" fill="#C996CC" rx="0" transform="matrix(-.01676 .98223 -1.02135 .19093 1822.512 -30.951)"/><rect x="280" y="676" width="13" height="16" fill="#3D2C8D" rx="0" transform="matrix(.59418 .87939 -.7941 .50771 841.086 34.263)"/><rect x="1002" y="53" width="11" height="28" fill="#916BBF" rx="0" transform="matrix(-.55646 .46363 -1.01597 -.95058 1770.695 10.492)"/><rect x="971" y="222" width="7" height="19" fill="#1C0C5B" rx="0" transform="matrix(.61991 .85437 -.76788 .55483 511.335 -540.102)"/><rect x="51" y="1166" width="10" height="17" fill="#1C0C5B" rx="0" transform="matrix(.86214 .75975 -.53995 .68408 724.852 340.406)"/><rect x="47" y="383" width="7" height="9" fill="#916BBF" rx="0" transform="matrix(-.96612 .1046 -.36892 -.99513 332.113 769.594)"/><rect x="1552" y="62" width="11" height="18" fill="#1C0C5B" rx="0" transform="matrix(.17714 .99023 -1.0411 -.1746 1414.046 -1295.19)"/><rect x="1119" y="576" width="8" height="12" fill="#C996CC" rx="0" transform="matrix(-.72102 .5922 -.69623 -.8151 2350.471 529.231)"/><rect x="786" y="1279" width="11" height="11" fill="#C996CC" rx="0" transform="matrix(.52355 .94283 -.8165 .43965 1213.478 200.478)"/><rect x="1952" y="98" width="10" height="22" fill="#1C0C5B" rx="0" transform="matrix(-.2471 .88537 -.9868 -.51117 2584.857 -1151.984)"/><rect x="1298" y="271" width="12" height="32" fill="#1C0C5B" rx="0" transform="matrix(.89274 .61801 -.47543 .79102 311.407 -631.827)"/><rect x="1625" y="1072" width="13" height="32" fill="#916BBF" rx="0" transform="matrix(-.58875 .5568 -.88935 -.8574 3864.643 1459.215)"/><rect x="702" y="681" width="13" height="35" fill="#C996CC" rx="0" transform="matrix(-.86264 .47126 -.49956 -.88632 1746.776 921.718)"/><rect x="280" y="596" width="8" height="13" fill="#C996CC" rx="0" transform="matrix(.86423 .6355 -.50632 .78478 504.937 -90.73)"/><rect x="646" y="509" width="7" height="16" fill="#C996CC" rx="0" transform="matrix(-.54662 .58639 -.9247 -.83745 1633.828 707.158)"/><rect x="164" y="768" width="8" height="9" fill="#916BBF" rx="0" transform="matrix(.71293 .94149 -.7741 .38039 802.144 350.105)"/><rect x="179" y="959" width="7" height="11" fill="#1C0C5B" rx="0" transform="matrix(.12006 1.04155 -.98128 -.18365 1071.153 1014.39)"/><rect x="235" y="1027" width="12" height="14" fill="#3D2C8D" rx="0" transform="matrix(-.60095 .6997 -.76175 -.7771 1037.474 1742.574)"/><rect x="1117" y="402" width="7" height="13" fill="#C996CC" rx="0" transform="matrix(-.58176 .77786 -.79742 -.6527 2034.405 1.11)"/><rect x="132" y="1018" width="7" height="18" fill="#3D2C8D" rx="0" transform="matrix(.83658 .36189 -.5839 .94276 515.865 -9.289)"/><rect x="1498" y="1208" width="9" height="20" fill="#C996CC" rx="0" transform="matrix(.19569 .99878 -1.01148 -.05234 2727.709 -192.688)"/><rect x="139" y="848" width="13" height="17" fill="#C996CC" rx="0" transform="matrix(-.30971 .87676 -.9689 -.486 1247.192 1135.011)"/><rect x="1719" y="597" width="7" height="20" fill="#C996CC" rx="0" transform="matrix(-.37095 .82856 -.91709 -.64734 2877.4 132.412)"/><rect x="721" y="831" width="7" height="20" fill="#916BBF" rx="0" transform="matrix(.94774 .3908 -.3262 .92065 384.664 -229.037)"/><rect x="627" y="10" width="10" height="26" fill="#C996CC" rx="0" transform="matrix(-.74448 .71978 -.67039 -.69508 1117.895 -437.983)"/><rect x="1400" y="390" width="8" height="22" fill="#916BBF" rx="0" transform="matrix(.2495 1.05746 -.9413 .01846 1353.782 -607.639)"/><rect x="86" y="1247" width="7" height="19" fill="#1C0C5B" rx="0" transform="matrix(.94121 .64436 -.43024 .76792 976.356 227.686)"/><rect x="275" y="123" width="12" height="19" fill="#916BBF" rx="0" transform="matrix(.74687 .86692 -.64974 .58474 149.592 -102.672)"/><rect x="1595" y="222" width="10" height="26" fill="#3D2C8D" rx="0" transform="matrix(.56996 1.002 -.9381 .10531 1057.075 -1196.478)"/><rect x="995" y="1273" width="11" height="29" fill="#C996CC" rx="0" transform="matrix(-.27482 .91578 -.96961 -.40773 2782.628 826.256)"/><rect x="1236" y="733" width="9" height="26" fill="#3D2C8D" rx="0" transform="matrix(.14898 .90763 -1.02911 .44268 1722.612 -884.49)"/><rect x="1379" y="481" width="12" height="30" fill="#916BBF" rx="0" transform="matrix(-.75772 .486 -.69067 -.87676 2899.053 160.921)"/><rect x="901" y="1084" width="10" height="26" fill="#3D2C8D" rx="0" transform="matrix(-.53657 .6821 -.89065 -.73147 2667.358 1297.247)"/><rect x="1174" y="287" width="12" height="22" fill="#3D2C8D" rx="0" transform="matrix(-.55588 .47473 -1.01547 -.93172 2365.375 376.228)"/><rect x="654" y="850" width="11" height="23" fill="#916BBF" rx="0" transform="matrix(.37544 1.00536 -1.00123 -.01755 1541.364 282.903)"/><rect x="1553" y="861" width="11" height="11" fill="#1C0C5B" rx="0" transform="matrix(.74262 .97756 -.75266 .3558 1261.337 -518.44)"/><rect x="610" y="650" width="13" height="26" fill="#916BBF" rx="0" transform="matrix(-.77885 .57366 -.63087 -.81928 1571.99 841.756)"/><rect x="1267" y="906" width="9" height="12" fill="#3D2C8D" rx="0" transform="matrix(1.07904 .36637 .08153 .95444 119.92 -154.026)"/><rect x="871" y="239" width="11" height="16" fill="#916BBF" rx="0" transform="matrix(.59982 .90768 -.79608 .46249 540.107 -492.444)"/><rect x="993" y="888" width="9" height="11" fill="#3D2C8D" rx="0" transform="matrix(.63672 .9141 -.81048 .40698 1332.756 -416.791)"/><rect x="386" y="778" width="7" height="7" fill="#C996CC" rx="0" transform="matrix(.10381 1.00413 -.99045 .05262 1079.998 390.204)"/><rect x="1106" y="849" width="7" height="14" fill="#1C0C5B" rx="0" transform="matrix(.8143 .84465 -.5703 .6365 672.61 -243.949)"/><rect x="154" y="948" width="12" height="28" fill="#916BBF" rx="0" transform="matrix(-.24414 .9204 -.97778 -.4098 1191.133 1228.6)"/><rect x="1917" y="555" width="9" height="10" fill="#916BBF" rx="0" transform="matrix(-.7567 .53513 -.65774 -.85638 3758.327 281.377)"/><rect x="166" y="795" width="7" height="20" fill="#C996CC" rx="0" transform="matrix(-.57289 .56131 -.89937 -.86435 1155.285 1447.917)"/><rect x="857" y="119" width="11" height="16" fill="#C996CC" rx="0" transform="matrix(.98194 .01772 -.17309 1.01527 37.124 -169.306)"/><rect x="1649" y="103" width="9" height="14" fill="#1C0C5B" rx="0" transform="matrix(1.05756 .23087 .24933 1 0 0)"/><rect x="1691" y="1344" width="13" height="17" fill="#916BBF" rx="0" transform="matrix(.63502 1 -.81791 .28675 1919.084 -246.073)"/><rect x="777" y="1350" width="7" height="18" fill="#C996CC" rx="0" transform="matrix(.96803 .25945 -.24155 .96828 279.143 -104.822)"/><rect x="1024" y="1300" width="12" height="31" fill="#C996CC" rx="0" transform="matrix(1.04502 .34223 -.05085 .94027 461.094 -309.883)"/><rect x="1856" y="397" width="9" height="13" fill="#916BBF" rx="0" transform="matrix(.54851 .95164 -.8726 .3092 1289.154 -1556.754)"/><rect x="362" y="1079" width="9" height="13" fill="#1C0C5B" rx="0" transform="matrix(-.60057 .94276 -.83019 -.36189 1360.815 1081.303)"/><rect x="414" y="1320" width="8" height="16" fill="#916BBF" rx="0" transform="matrix(-.96925 .29309 -.24168 -.95864 1166.775 2449.335)"/><rect x="1617" y="590" width="13" height="28" fill="#916BBF" rx="0" transform="matrix(1.01976 .24285 -.02779 .974 125.932 -520.596)"/><rect x="642" y="601" width="9" height="21" fill="#1C0C5B" rx="0" transform="matrix(1.0365 .12189 .23728 .9927 45.75 -63.05)"/><rect x="257" y="369" width="12" height="18" fill="#916BBF" rx="0" transform="matrix(.01746 1 -1.00122 -.06993 643.79 159.823)"/><rect x="578" y="983" width="12" height="27" fill="#C996CC" rx="0" transform="matrix(-.56692 .70606 -.80837 -.75715 1660.195 1495.148)"/><rect x="887" y="1061" width="11" height="28" fill="#3D2C8D" rx="0" transform="matrix(.89942 .19375 -.53413 .99677 502.153 -326.824)"/><rect x="1733" y="1045" width="13" height="18" fill="#916BBF" rx="0" transform="matrix(.91233 .44268 -.38842 .90763 448.305 -428.209)"/><rect x="1390" y="213" width="8" height="22" fill="#3D2C8D" rx="0" transform="matrix(-.59612 .50696 -.89712 -.91458 2552.322 148.35)"/><rect x="1586" y="379" width="10" height="15" fill="#C996CC" rx="0" transform="matrix(-.40162 .69476 -1.00865 -.74504 2806.255 -121.65)"/><rect x="1186" y="923" width="10" height="27" fill="#1C0C5B" rx="0" transform="matrix(-.94477 .55 -.3634 -.84691 2602.756 907.21)"/><rect x="1629" y="160" width="10" height="11" fill="#C996CC" rx="0" transform="matrix(.51297 .85272 -.85218 .53284 936.29 -1487.769)"/><rect x="782" y="1291" width="13" height="14" fill="#C996CC" rx="0" transform="matrix(.93758 .56469 -.38086 .83718 952.359 -344.74)"/><rect x="1335" y="451" width="8" height="20" fill="#1C0C5B" rx="0" transform="matrix(-.83779 .50122 -.54404 -.86814 2701.917 283.71)"/><rect x="901" y="468" width="11" height="31" fill="#C996CC" rx="0" transform="matrix(-.9801 .0872 -.26421 -.9968 2018.743 854.743)"/><rect x="1589" y="917" width="7" height="17" fill="#1C0C5B" rx="0" transform="matrix(.99223 .26024 -.13948 .97125 160.538 -220.45)"/><rect x="857" y="334" width="7" height="16" fill="#916BBF" rx="0" transform="matrix(-.35837 .84423 -.93358 -.59114 1488.16 32.256)"/><rect x="531" y="68" width="10" height="16" fill="#916BBF" rx="0" transform="matrix(-.30701 .82936 -.99077 -.58073 801.34 -239.51)"/><rect x="1212" y="163" width="11" height="18" fill="#3D2C8D" rx="0" transform="matrix(-.94355 .0367 -.23157 -1.05082 2346.446 703.654)"/><rect x="242" y="90" width="7" height="17" fill="#3D2C8D" rx="0" transform="matrix(-.9496 .58073 -.36581 -.82936 509.444 -1.26)"/><rect x="1223" y="388" width="11" height="12" fill="#916BBF" rx="0" transform="matrix(.08267 .94675 -1.08633 -.34459 1731.99 -482.473)"/><rect x="1888" y="92" width="9" height="14" fill="#1C0C5B" rx="0" transform="matrix(.93362 .56133 -.39734 .8322 192.773 -880.13)"/><rect x="1025" y="1162" width="12" height="23" fill="#3D2C8D" rx="0" transform="matrix(.97968 .08781 -.1904 1.00368 262.649 -221.437)"/><rect x="695" y="1197" width="9" height="12" fill="#3D2C8D" rx="0" transform="matrix(.48427 .87582 -.87335 .48547 1472.52 -30.322)"/><rect x="698" y="1036" width="11" height="21" fill="#3D2C8D" rx="0" transform="matrix(.26382 .99497 -.97266 .12217 1747.775 169.498)"/><rect x="856" y="1221" width="12" height="13" fill="#C996CC" rx="0" transform="matrix(1.05093 .58922 -.25067 .811 707.213 -215.625)"/><rect x="212" y="872" width="10" height="19" fill="#916BBF" rx="0" transform="matrix(-.5418 .76635 -.8339 -.66618 1037.538 1340.702)"/><rect x="1900" y="1255" width="7" height="12" fill="#C996CC" rx="0" transform="matrix(.35837 .87039 -.93358 .52298 2398.592 -1390.909)"/><rect x="1890" y="73" width="11" height="29" fill="#C996CC" rx="0" transform="matrix(1.01742 .44079 -.18267 .90374 33.53 -627.862)"/><rect x="348" y="541" width="12" height="12" fill="#C996CC" rx="0" transform="matrix(-.45783 .85862 -.87858 -.53652 1109.994 480.46)"/><rect x="1673" y="365" width="8" height="22" fill="#916BBF" rx="0" transform="matrix(-.75013 .63405 -.65084 -.78298 3128.773 -186.985)"/><rect x="833" y="613" width="10" height="14" fill="#1C0C5B" rx="0" transform="matrix(.86456 .54614 -.44745 .87401 259.628 -170.616)"/><rect x="916" y="728" width="11" height="24" fill="#916BBF" rx="0" transform="matrix(-.38921 .88322 -.91648 -.48957 1927.992 417.91)"/><rect x="1728" y="920" width="11" height="22" fill="#3D2C8D" rx="0" transform="matrix(-1.01887 .3956 -.12749 -.93198 3537.802 838.338)"/><rect x="695" y="409" width="8" height="15" fill="#3D2C8D" rx="0" transform="matrix(-.17217 .94505 -.97417 -.46093 1202.617 175.008)"/><rect x="318" y="119" width="12" height="33" fill="#3D2C8D" rx="0" transform="matrix(-.98231 -.1985 -.01575 -1.02119 628.432 431.09)"/><rect x="1147" y="480" width="7" height="12" fill="#C996CC" rx="0" transform="matrix(-.25876 .95164 -.96674 -.3092 1957.049 -498.76)"/><rect x="1481" y="911" width="12" height="29" fill="#3D2C8D" rx="0" transform="matrix(-.15572 .94772 -.98255 -.44193 2603.813 379.869)"/><rect x="1280" y="379" width="8" height="14" fill="#3D2C8D" rx="0" transform="matrix(-.32682 .79864 -1.00586 -.60182 2224.812 -407.147)"/><rect x="434" y="700" width="10" height="10" fill="#C996CC" rx="0" transform="matrix(.24933 1 -.98257 .06993 1190.376 186.004)"/><rect x="1480" y="534" width="7" height="17" fill="#C996CC" rx="0" transform="matrix(.80298 .79575 -.62931 .62171 712.619 -766.789)"/><rect x="1339" y="31" width="11" height="22" fill="#916BBF" rx="0" transform="matrix(-.76687 .401 -.68708 -.94472 2441.452 -147.076)"/><rect x="1407" y="74" width="10" height="23" fill="#1C0C5B" rx="0" transform="matrix(1.03778 .39367 -.09537 .92742 5.124 -376.278)"/><rect x="606" y="440" width="10" height="27" fill="#1C0C5B" rx="0" transform="matrix(-.71046 .8151 -.71067 -.5922 1354.166 149.02)"/><rect x="315" y="746" width="13" height="20" fill="#916BBF" rx="0" transform="matrix(-.23942 .86189 -1.01639 -.51788 1334.736 904.207)"/><rect x="1800" y="786" width="12" height="25" fill="#1C0C5B" rx="0" transform="matrix(-.4279 .85563 -.85784 -.62165 3038.797 371.473)"/><rect x="339" y="949" width="12" height="14" fill="#1C0C5B" rx="0" transform="matrix(.43096 .94149 -.88803 .38039 938.399 328.371)"/><rect x="1635" y="291" width="10" height="20" fill="#1C0C5B" rx="0" transform="matrix(.98841 .27631 -.17211 .9636 103.66 -556.875)"/><rect x="1388" y="883" width="8" height="22" fill="#C996CC" rx="0" transform="matrix(-.10856 .87036 -1.08112 -.54386 2812.666 490.043)"/><rect x="549" y="461" width="9" height="14" fill="#1C0C5B" rx="0" transform="matrix(1.07057 .85216 -.42386 .5967 375.103 -124.21)"/><rect x="924" y="1350" width="8" height="10" fill="#3D2C8D" rx="0" transform="matrix(-.18674 .90977 -1.0121 -.42423 2911.3 1004.38)"/><rect x="1285" y="449" width="12" height="25" fill="#C996CC" rx="0" transform="matrix(.29293 .97125 -.95111 .26024 1397.55 -1048.172)"/><rect x="230" y="169" width="9" height="14" fill="#1C0C5B" rx="0" transform="matrix(1.04846 .15665 .23603 .98904 11.929 -22.516)"/><rect x="977" y="478" width="11" height="17" fill="#3D2C8D" rx="0" transform="matrix(.9047 .32577 -.44222 .9461 226.275 -259.531)"/><rect x="454" y="864" width="10" height="25" fill="#C996CC" rx="0" transform="matrix(.55665 .79393 -.82466 .62028 969.295 -87.951)"/><rect x="1236" y="197" width="12" height="34" fill="#916BBF" rx="0" transform="matrix(.7891 .64338 -.57983 .7945 310.308 -491.107)"/><rect x="760" y="1156" width="13" height="34" fill="#916BBF" rx="0" transform="matrix(.72996 .96846 -.76688 .3525 1347.071 208.314)"/><rect x="1778" y="855" width="7" height="20" fill="#1C0C5B" rx="0" transform="matrix(.55934 .69561 -.85837 .72033 1391.457 -1090.68)"/><rect x="1791" y="1290" width="7" height="11" fill="#916BBF" rx="0" transform="matrix(-.74299 .44268 -.73562 -.90763 4381.63 1929.143)"/><rect x="137" y="813" width="10" height="29" fill="#3D2C8D" rx="0" transform="matrix(-.28166 .87682 -.97787 -.50623 1065.547 1144.39)"/><rect x="1514" y="532" width="10" height="28" fill="#3D2C8D" rx="0" transform="matrix(.97126 .19224 -.20507 .989 193.405 -472.519)"/><rect x="810" y="1269" width="9" height="14" fill="#C996CC" rx="0" transform="matrix(.6945 .98655 -.81449 .28289 1599.305 299.535)"/><rect x="802" y="654" width="7" height="7" fill="#3D2C8D" rx="0" transform="matrix(-.94187 .17535 -.36114 -.99449 1842.011 1283.332)"/><rect x="1048" y="1291" width="11" height="14" fill="#916BBF" rx="0" transform="matrix(.52873 1.03282 -.88448 .16358 1786.28 319.684)"/><rect x="469" y="923" width="8" height="16" fill="#1C0C5B" rx="0" transform="matrix(.82824 .34538 -.61977 .94893 521.316 -182.293)"/><rect x="180" y="1228" width="12" height="12" fill="#C996CC" rx="0" transform="matrix(.90405 .47126 -.42168 .88632 494.542 68.898)"/><rect x="94" y="374" width="11" height="13" fill="#916BBF" rx="0" transform="matrix(-.49962 .56131 -1.0122 -.86435 666.045 678.34)"/><rect x="1986" y="1193" width="10" height="23" fill="#C996CC" rx="0" transform="matrix(.95242 .43864 -.32703 .89934 668.399 -821.614)"/><rect x="1859" y="1226" width="10" height="25" fill="#916BBF" rx="0" transform="matrix(.95173 .42789 -.29607 .9176 727.138 -990.762)"/><rect x="435" y="1229" width="8" height="18" fill="#1C0C5B" rx="0" transform="matrix(-.50464 .78011 -.87321 -.63172 1830.83 1716.012)"/><rect x="1061" y="650" width="12" height="26" fill="#916BBF" rx="0" transform="matrix(-.84516 .3092 -.63296 -.95164 2602.531 1001.273)"/><rect x="1639" y="157" width="7" height="7" fill="#1C0C5B" rx="0" transform="matrix(.62536 .66923 -.79972 .74326 722.825 -1086.677)"/><rect x="226" y="1099" width="8" height="14" fill="#3D2C8D" rx="0" transform="matrix(1.01376 .50623 -.2195 .87682 420.538 56.231)"/><rect x="1118" y="1188" width="7" height="7" fill="#916BBF" rx="0" transform="matrix(1.002 -.12307 -.03495 1.0023 21.355 -22.338)"/><rect x="117" y="333" width="9" height="26" fill="#1C0C5B" rx="0" transform="matrix(1.02916 .56469 -.2451 .83718 165.081 4.8)"/><rect x="91" y="398" width="7" height="12" fill="#3D2C8D" rx="0" transform="matrix(-.85212 .66099 -.53264 -.76038 376.509 637.126)"/><rect x="796" y="86" width="13" height="22" fill="#916BBF" rx="0" transform="matrix(-.28805 .93172 -.92652 -.47473 1081.496 -359.306)"/><rect x="796" y="567" width="13" height="29" fill="#C996CC" rx="0" transform="matrix(.42278 .92107 -.90624 .39097 1028.905 -413.028)"/><rect x="1482" y="1141" width="11" height="27" fill="#1C0C5B" rx="0" transform="matrix(.5275 1.03887 -.93494 .05445 2089.542 -27.148)"/><rect x="468" y="329" width="12" height="29" fill="#3D2C8D" rx="0" transform="matrix(-.89498 .24374 -.5132 -.97758 1138.126 621.967)"/><rect x="1721" y="128" width="8" height="23" fill="#916BBF" rx="0" transform="matrix(-.15584 .9757 -.98892 -.22526 2137.799 -1602.575)"/><rect x="795" y="1133" width="12" height="14" fill="#916BBF" rx="0" transform="matrix(.60182 .70332 -.79864 .7283 1229.39 -380.493)"/><rect x="859" y="644" width="9" height="18" fill="#3D2C8D" rx="0" transform="matrix(.48152 .88781 -.87034 .47206 950.968 -331.121)"/><rect x="579" y="52" width="11" height="11" fill="#3D2C8D" rx="0" transform="matrix(-.98484 .57788 -.32395 -.8253 1181.284 -304.586)"/><rect x="816" y="469" width="8" height="13" fill="#916BBF" rx="0" transform="matrix(.6416 .8271 -.74291 .60092 567.366 -314.154)"/><rect x="394" y="579" width="9" height="20" fill="#C996CC" rx="0" transform="matrix(.64106 1.01496 -.87223 .17896 815.7 178.487)"/><rect x="1612" y="1156" width="11" height="17" fill="#C996CC" rx="0" transform="matrix(-.38273 .8253 -.94369 -.57788 3478.754 701.121)"/><rect x="788" y="744" width="9" height="9" fill="#1C0C5B" rx="0" transform="matrix(-.0583 .8717 -1.10786 -.58797 1918.757 755.271)"/><rect x="1447" y="682" width="10" height="17" fill="#C996CC" rx="0" transform="matrix(.1197 .96886 -1.07103 -.3148 2260.285 -216.67)"/><rect x="1909" y="1261" width="7" height="10" fill="#916BBF" rx="0" transform="matrix(-.38716 .78316 -.95202 -.65715 4033.982 1006.673)"/><rect x="1065" y="1245" width="13" height="29" fill="#916BBF" rx="0" transform="matrix(.92178 .30977 -.39125 .95338 555.916 -348.128)"/><rect x="285" y="440" width="7" height="20" fill="#916BBF" rx="0" transform="matrix(.10164 1.01108 -.98372 .05299 649.749 180.153)"/><rect x="1090" y="223" width="7" height="11" fill="#C996CC" rx="0" transform="matrix(.99364 .42677 -.2123 .91521 88.9 -293.62)"/><rect x="681" y="239" width="10" height="21" fill="#1C0C5B" rx="0" transform="matrix(1.00048 .43864 -.2285 .89934 117.114 -299.747)"/><rect x="165" y="1164" width="13" height="13" fill="#3D2C8D" rx="0" transform="matrix(-.90268 .6508 -.4608 -.7756 785.73 1939.557)"/><rect x="923" y="1344" width="7" height="11" fill="#916BBF" rx="0" transform="matrix(-.9748 .19084 -.2251 -.98178 2203.309 2481.424)"/><rect x="1101" y="233" width="11" height="22" fill="#3D2C8D" rx="0" transform="matrix(.84428 .64318 -.5486 .76651 330.889 -616.067)"/><rect x="444" y="1278" width="10" height="10" fill="#3D2C8D" rx="0" transform="matrix(-.9175 .15885 -.50241 -1.00293 1745.742 2577.601)"/><rect x="1266" y="64" width="7" height="11" fill="#1C0C5B" rx="0" transform="matrix(-.55834 .9657 -.86481 -.29525 2053.723 -1314.357)"/><rect x="563" y="184" width="13" height="36" fill="#3D2C8D" rx="0" transform="matrix(-.9563 .32577 -.29237 -.9461 1173.175 187.7)"/><rect x="1852" y="212" width="8" height="12" fill="#916BBF" rx="0" transform="matrix(-.69163 .69848 -.71547 -.7233 3266.753 -725.634)"/><rect x="580" y="965" width="11" height="29" fill="#C996CC" rx="0" transform="matrix(-.2451 .83718 -1.02916 -.56469 1982.199 1124.727)"/><rect x="1566" y="1375" width="8" height="18" fill="#916BBF" rx="0" transform="matrix(.98705 .10454 -.17418 .99467 137.915 -129.358)"/><rect x="215" y="319" width="11" height="26" fill="#C996CC" rx="0" transform="matrix(.89438 .53 -.4555 .84818 209.004 -70.309)"/><rect x="68" y="38" width="13" height="30" fill="#C996CC" rx="0" transform="matrix(-.95676 .01807 -.53372 -1.03512 192.257 126.477)"/><rect x="1383" y="824" width="11" height="28" fill="#916BBF" rx="0" transform="matrix(-.60367 .65616 -.82957 -.75482 3105.158 583.703)"/><rect x="1091" y="1034" width="11" height="12" fill="#1C0C5B" rx="0" transform="matrix(.6727 .9926 -.85214 .22916 1580.884 -73.583)"/><rect x="603" y="1163" width="9" height="24" fill="#C996CC" rx="0" transform="matrix(-.98877 -.05285 .05457 -1.00844 966.92 2477.406)"/><rect x="1201" y="171" width="7" height="7" fill="#C996CC" rx="0" transform="matrix(-.07077 .83342 -1.1446 -.65114 1669.62 -300.984)"/><rect x="220" y="1248" width="12" height="30" fill="#916BBF" rx="0" transform="matrix(-.57988 .84912 -.8011 -.55143 1497.83 1731.757)"/><rect x="208" y="140" width="11" height="28" fill="#C996CC" rx="0" transform="matrix(-.8636 .74264 -.54123 -.69252 471.05 64.45)"/><rect x="1430" y="169" width="9" height="16" fill="#C996CC" rx="0" transform="matrix(.95154 .36189 -.28442 .94276 114.626 -710.604)"/><rect x="768" y="755" width="11" height="17" fill="#3D2C8D" rx="0" transform="matrix(-.72763 .47473 -.6784 -.93172 1836.819 1344.143)"/><rect x="1860" y="355" width="11" height="13" fill="#1C0C5B" rx="0" transform="matrix(.73368 .8215 -.68424 .59685 756.226 -1057.828)"/><rect x="1639" y="413" width="8" height="17" fill="#C996CC" rx="0" transform="matrix(-.27702 .90003 -.97596 -.43897 2586.948 -958.324)"/><rect x="772" y="1058" width="13" height="38" fill="#1C0C5B" rx="0" transform="matrix(-.1929 .94566 -.99104 -.32562 2129.93 705.08)"/><rect x="1299" y="100" width="12" height="21" fill="#1C0C5B" rx="0" transform="matrix(-.57023 .47735 -.97575 -.93686 2310.238 15.096)"/><rect x="1669" y="605" width="10" height="13" fill="#916BBF" rx="0" transform="matrix(.12987 1.00967 -.98815 .01762 2154.657 -1324.736)"/><rect x="1642" y="954" width="8" height="15" fill="#3D2C8D" rx="0" transform="matrix(-.99133 .06985 -.1393 -.99893 3429.955 1893.26)"/><rect x="1878" y="824" width="12" height="16" fill="#916BBF" rx="0" transform="matrix(-.12932 .90987 -1.02738 -.50435 3126.646 77.657)"/><rect x="569" y="700" width="8" height="21" fill="#916BBF" rx="0" transform="matrix(.33956 .99517 -.90748 .28536 870.845 91.053)"/><rect x="1552" y="167" width="8" height="23" fill="#C996CC" rx="0" transform="matrix(-.27256 .94577 -.93599 -.42108 2074.068 -801.028)"/><rect x="957" y="845" width="8" height="13" fill="#1C0C5B" rx="0" transform="matrix(.95586 .70332 -.432 .7283 605.371 -292.334)"/><rect x="903" y="188" width="11" height="31" fill="#3D2C8D" rx="0" transform="matrix(.94372 .31287 -.29176 .96291 61.684 -132.802)"/><rect x="1361" y="702" width="9" height="25" fill="#C996CC" rx="0" transform="matrix(1.09814 .5739 -.1144 .85084 242.994 -361.841)"/><rect x="1563" y="1089" width="12" height="22" fill="#C996CC" rx="0" transform="matrix(.93958 .461 -.3252 .90475 704.252 -895.184)"/><rect x="813" y="613" width="11" height="14" fill="#C996CC" rx="0" transform="matrix(.76063 .7546 -.64032 .67945 738.354 -563.232)"/><rect x="1672" y="1008" width="11" height="13" fill="#C996CC" rx="0" transform="matrix(.73616 .71406 -.66429 .71406 1007.121 -671.981)"/><rect x="1751" y="689" width="8" height="16" fill="#916BBF" rx="0" transform="matrix(.32623 .9636 -.94422 .27631 1911.104 -1309.444)"/><rect x="256" y="805" width="12" height="23" fill="#1C0C5B" rx="0" transform="matrix(.40731 .87676 -.9148 .486 888.278 171.656)"/><rect x="273" y="896" width="12" height="28" fill="#916BBF" rx="0" transform="matrix(.18814 1.02615 -.97123 .01791 1059.264 671.818)"/><rect x="1864" y="374" width="13" height="30" fill="#916BBF" rx="0" transform="matrix(.7512 .79102 -.67728 .61801 777.188 -1167.364)"/><rect x="1353" y="373" width="9" height="9" fill="#1C0C5B" rx="0" transform="matrix(-.12227 .97452 -.99792 -.22499 1943.633 -884.172)"/><rect x="1274" y="1142" width="11" height="32" fill="#3D2C8D" rx="0" transform="matrix(-.33211 .86721 -.96137 -.50069 2989.877 695.25)"/><rect x="185" y="1314" width="7" height="13" fill="#3D2C8D" rx="0" transform="matrix(.37781 1.02497 -.93593 .10773 1400.933 1032.036)"/><rect x="1570" y="1344" width="11" height="11" fill="#C996CC" rx="0" transform="matrix(-.21064 1.00244 -.99756 0 3079.4 -340.017)"/><rect x="484" y="663" width="9" height="23" fill="#C996CC" rx="0" transform="matrix(-.81163 .62171 -.56962 -.79575 1322.196 838.876)"/><rect x="1673" y="102" width="8" height="21" fill="#3D2C8D" rx="0" transform="matrix(.8961 .37667 -.43692 .9323 221.165 -800.318)"/><rect x="883" y="1152" width="9" height="10" fill="#3D2C8D" rx="0" transform="matrix(-.10511 .88322 -1.07396 -.48957 2590.891 1064.314)"/><rect x="631" y="966" width="9" height="22" fill="#916BBF" rx="0" transform="matrix(-.9077 .27568 -.4619 -.9614 1837.838 1752.194)"/><rect x="1332" y="107" width="7" height="16" fill="#C996CC" rx="0" transform="matrix(.81877 .58814 -.57332 .80951 305.141 -716.923)"/><rect x="1555" y="98" width="10" height="28" fill="#3D2C8D" rx="0" transform="matrix(-.94632 .09067 -.21272 -1.03634 2981.48 533.95)"/><rect x="875" y="214" width="11" height="21" fill="#916BBF" rx="0" transform="matrix(.78742 .5886 -.61518 .81013 328.398 -521.774)"/><rect x="1816" y="992" width="12" height="33" fill="#3D2C8D" rx="0" transform="matrix(1.0952 .8613 -.39415 .6031 775.133 -577.019)"/><rect x="167" y="1234" width="9" height="11" fill="#916BBF" rx="0" transform="matrix(-.91987 .64633 -.45094 -.77026 716.53 2065.372)"/><rect x="963" y="1246" width="9" height="11" fill="#1C0C5B" rx="0" transform="matrix(.71216 .70537 -.68022 .73044 1320.373 -515.688)"/><rect x="1053" y="244" width="13" height="38" fill="#916BBF" rx="0" transform="matrix(-.54965 .74598 -.8456 -.67169 1889.122 -258.022)"/><rect x="1009" y="1008" width="13" height="30" fill="#C996CC" rx="0" transform="matrix(.75048 .55928 -.67538 .82916 820.873 -410.907)"/><rect x="959" y="749" width="12" height="19" fill="#3D2C8D" rx="0" transform="matrix(-.82131 .25437 -.63715 -1.02023 2353.521 1600.423)"/><rect x="603" y="1231" width="12" height="34" fill="#1C0C5B" rx="0" transform="matrix(.206 1.00244 -1.00836 -.05254 2153.354 649.796)"/><rect x="1041" y="451" width="13" height="22" fill="#C996CC" rx="0" transform="matrix(.39218 1.0068 -.92409 .17753 1075.569 -451.997)"/><rect x="848" y="813" width="8" height="8" fill="#3D2C8D" rx="0" transform="matrix(-.71252 .60328 -.71204 -.80059 2102.104 1016.658)"/><rect x="330" y="1172" width="11" height="13" fill="#1C0C5B" rx="0" transform="matrix(-.96744 .12233 -.29508 -.99634 1113.503 2340.993)"/><rect x="794" y="334" width="13" height="27" fill="#3D2C8D" rx="0" transform="matrix(.75908 1.03552 -.85902 .14553 683.798 -287.265)"/><rect x="713" y="407" width="7" height="18" fill="#1C0C5B" rx="0" transform="matrix(-.3911 .89155 -.92237 -.45427 1421.523 -58.84)"/><rect x="732" y="1362" width="9" height="18" fill="#3D2C8D" rx="0" transform="matrix(1.11662 .34044 .30554 .98872 44.817 -10.103)"/><rect x="885" y="1363" width="8" height="18" fill="#916BBF" rx="0" transform="matrix(-.22505 .98178 -.97482 -.19084 2402.839 745.513)"/><rect x="1841" y="1124" width="7" height="16" fill="#C996CC" rx="0" transform="matrix(.7417 .63086 -.66923 .77904 1079.189 -784.513)"/><rect x="260" y="991" width="10" height="13" fill="#916BBF" rx="0" transform="matrix(.20736 1.03996 -.93978 .1093 957.307 693.897)"/><rect x="1978" y="1225" width="9" height="18" fill="#916BBF" rx="0" transform="matrix(.81644 .70948 -.53396 .76083 833.369 -542.937)"/><rect x="1692" y="555" width="9" height="20" fill="#916BBF" rx="0" transform="matrix(.33675 .95481 -.93137 .32877 1552.774 -1002.163)"/><rect x="1717" y="68" width="12" height="19" fill="#1C0C5B" rx="0" transform="matrix(-.62764 .86785 -.77515 -.52146 2861.086 -1650.292)"/><rect x="1707" y="551" width="8" height="15" fill="#C996CC" rx="0" transform="matrix(.55878 .81013 -.8284 .5886 1225.77 -1246.026)"/><rect x="1600" y="846" width="11" height="26" fill="#916BBF" rx="0" transform="matrix(.12168 .98857 -.9901 .17431 2285.741 -1018.345)"/><rect x="1635" y="745" width="9" height="18" fill="#3D2C8D" rx="0" transform="matrix(-.99112 .36034 -.19318 -.93872 3369.427 698.698)"/><rect x="1304" y="1115" width="9" height="14" fill="#3D2C8D" rx="0" transform="matrix(.37888 .97452 -.93868 .22499 2026.825 -382.751)"/><rect x="254" y="443" width="11" height="27" fill="#916BBF" rx="0" transform="matrix(1.01076 .5634 -.27645 .83526 227.212 -39.136)"/><rect x="901" y="951" width="11" height="17" fill="#C996CC" rx="0" transform="matrix(1.00746 .58474 -.21653 .86692 309.184 -125.233)"/><rect x="647" y="408" width="12" height="19" fill="#3D2C8D" rx="0" transform="matrix(.16925 .99449 -.9757 .17535 878.26 -213.337)"/><rect x="1204" y="612" width="7" height="9" fill="#916BBF" rx="0" transform="matrix(1.01497 .20906 -.00832 .98354 136.733 -369.2)"/><rect x="777" y="344" width="7" height="17" fill="#1C0C5B" rx="0" transform="matrix(1.0234 .2255 -.00173 .97675 46.819 -113.23)"/><rect x="1641" y="1322" width="7" height="7" fill="#C996CC" rx="0" transform="matrix(-.68529 .52654 -.75867 -.87632 3923.614 1970.705)"/><rect x="1601" y="1345" width="10" height="11" fill="#3D2C8D" rx="0" transform="matrix(-.98137 .05234 -.3788 -.99878 4149.018 2587.257)"/><rect x="301" y="1128" width="10" height="19" fill="#C996CC" rx="0" transform="matrix(.9599 .41435 -.25745 .93064 263.32 11.582)"/><rect x="1874" y="173" width="7" height="17" fill="#C996CC" rx="0" transform="matrix(.13993 1.0345 -.99638 -.2199 1810.084 -1074.405)"/><rect x="1668" y="868" width="7" height="10" fill="#916BBF" rx="0" transform="matrix(.35894 .96962 -.93516 .2598 1905.707 -828.287)"/><rect x="1138" y="225" width="12" height="26" fill="#C996CC" rx="0" transform="matrix(-.24284 .74472 -1.10829 -.71916 1862.508 -136.26)"/><rect x="447" y="930" width="11" height="30" fill="#3D2C8D" rx="0" transform="matrix(-.72941 .78683 -.68025 -.63716 1440.64 1119.41)"/><rect x="1531" y="283" width="11" height="16" fill="#1C0C5B" rx="0" transform="matrix(.59948 .85442 -.79579 .5339 830.218 -988.517)"/><rect x="1368" y="90" width="8" height="10" fill="#916BBF" rx="0" transform="matrix(.29183 .95762 -.95504 .29277 1053.586 -1174.76)"/><rect x="1059" y="985" width="12" height="28" fill="#916BBF" rx="0" transform="matrix(.92696 .50069 -.39173 .86721 635.436 -456.392)"/><rect x="828" y="221" width="7" height="18" fill="#916BBF" rx="0" transform="matrix(-.57711 .70948 -.7906 -.76083 1452.223 53.484)"/><rect x="1749" y="94" width="10" height="16" fill="#1C0C5B" rx="0" transform="matrix(-.96301 .45406 -.31234 -.89114 3451.595 -572.908)"/><rect x="201" y="1192" width="11" height="23" fill="#C996CC" rx="0" transform="matrix(.6858 .9599 -.7647 .38782 1095.34 593.871)"/><rect x="1470" y="1167" width="8" height="11" fill="#3D2C8D" rx="0" transform="matrix(-.99427 .20842 -.12034 -.98054 2878.62 2118.04)"/><rect x="873" y="376" width="10" height="24" fill="#3D2C8D" rx="0" transform="matrix(.72897 .67169 -.67919 .74598 523.252 -567.997)"/><rect x="1855" y="552" width="9" height="20" fill="#C996CC" rx="0" transform="matrix(-.22801 .9204 -.98496 -.4098 2892.298 -690.874)"/><rect x="400" y="1333" width="13" height="14" fill="#3D2C8D" rx="0" transform="matrix(.81485 .93198 -.7271 .3956 1478.94 495.428)"/><rect x="1616" y="829" width="7" height="10" fill="#1C0C5B" rx="0" transform="matrix(.64605 .66099 -.7697 .76038 1192.973 -1069.471)"/><rect x="125" y="215" width="12" height="21" fill="#916BBF" rx="0" transform="matrix(.52038 1.02293 -.91369 .1256 309.755 95.835)"/><rect x="1620" y="817" width="8" height="11" fill="#C996CC" rx="0" transform="matrix(.70282 .95419 -.7922 .3473 1369.905 -726.399)"/><rect x="417" y="1256" width="7" height="13" fill="#916BBF" rx="0" transform="matrix(-.82954 .58779 -.55953 -.80902 1431.647 2036.72)"/><rect x="196" y="1149" width="12" height="28" fill="#1C0C5B" rx="0" transform="matrix(-1.06035 -.21525 -.34271 -1.01265 1163.767 2438.32)"/><rect x="386" y="308" width="9" height="24" fill="#1C0C5B" rx="0" transform="matrix(.31553 .9927 -.96861 .12189 643.81 -113.469)"/><rect x="1781" y="1281" width="11" height="17" fill="#C996CC" rx="0" transform="matrix(.1817 .99817 -1.01454 -.0698 3122.02 -466.115)"/><rect x="656" y="341" width="9" height="16" fill="#C996CC" rx="0" transform="matrix(-.84967 .60411 -.52777 -.80169 1334.17 287.558)"/><rect x="565" y="857" width="12" height="35" fill="#C996CC" rx="0" transform="matrix(-.97909 .51788 -.30149 -.86189 1279.243 1272.5)"/><rect x="1602" y="604" width="11" height="13" fill="#916BBF" rx="0" transform="matrix(.7127 .69988 -.6908 .72474 784.372 -759.628)"/><rect x="23" y="393" width="13" height="36" fill="#3D2C8D" rx="0" transform="matrix(-.51365 .70537 -.88579 -.73044 452.456 695.603)"/><rect x="505" y="16" width="10" height="20" fill="#1C0C5B" rx="0" transform="matrix(-.11854 .93586 -1.02303 -.35924 593.914 -477.611)"/><rect x="1305" y="101" width="8" height="17" fill="#C996CC" rx="0" transform="matrix(-.80751 .25046 -.75397 -1.00452 2571.913 242.394)"/><rect x="822" y="384" width="13" height="22" fill="#3D2C8D" rx="0" transform="matrix(.06882 1.02253 -.98887 -.16195 1140.538 -166.199)"/><rect x="107" y="1109" width="12" height="32" fill="#C996CC" rx="0" transform="matrix(-.42363 .87475 -.90836 -.48488 1241.836 1573.62)"/><rect x="1242" y="795" width="7" height="15" fill="#3D2C8D" rx="0" transform="matrix(.84983 .58814 -.53058 .80951 692.604 -623.158)"/><rect x="640" y="939" width="9" height="15" fill="#1C0C5B" rx="0" transform="matrix(.58038 .69988 -.82782 .72474 993.329 -269.672)"/><rect x="995" y="599" width="10" height="23" fill="#C996CC" rx="0" transform="matrix(.99742 -.01755 -.15746 1.00536 63.365 -90.825)"/><rect x="1674" y="1147" width="10" height="24" fill="#C996CC" rx="0" transform="matrix(-.8087 .60218 -.58744 -.79912 3653.845 1132.751)"/><rect x="1166" y="1234" width="9" height="14" fill="#3D2C8D" rx="0" transform="matrix(-1.01688 -.08764 -.21216 -1.00168 2889.19 2709.69)"/><rect x="588" y="457" width="10" height="20" fill="#916BBF" rx="0" transform="matrix(1.02944 .54672 -.2439 .84187 235.473 -198.48)"/><rect x="888" y="780" width="13" height="31" fill="#1C0C5B" rx="0" transform="matrix(1.03944 .15665 .17908 .98904 63.814 -84.528)"/><rect x="582" y="706" width="13" height="26" fill="#3D2C8D" rx="0" transform="matrix(.66553 .9846 -.79939 .31992 879.238 67.226)"/><rect x="546" y="944" width="12" height="35" fill="#3D2C8D" rx="0" transform="matrix(.28438 1.00061 -.9994 0 1600.472 428.44)"/><rect x="1338" y="676" width="8" height="20" fill="#C996CC" rx="0" transform="matrix(.67799 .71242 -.72568 .71242 975.557 -923.559)"/><rect x="1553" y="770" width="11" height="31" fill="#1C0C5B" rx="0" transform="matrix(-.82416 .57674 -.55687 -.82366 3334.77 369.84)"/><rect x="993" y="302" width="11" height="11" fill="#C996CC" rx="0" transform="matrix(.5142 1.02253 -.89652 .16195 821.183 -495.75)"/><rect x="603" y="97" width="8" height="10" fill="#1C0C5B" rx="0" transform="matrix(-.94549 .31072 -.30842 -.9563 1216.386 -52.863)"/><rect x="32" y="631" width="12" height="32" fill="#916BBF" rx="0" transform="matrix(.81915 .54497 -.57358 .83918 377.976 82.014)"/><rect x="1386" y="568" width="9" height="15" fill="#C996CC" rx="0" transform="matrix(.44817 .9636 -.90926 .27631 1409.847 -1020.648)"/><rect x="714" y="1048" width="13" height="38" fill="#3D2C8D" rx="0" transform="matrix(-.97742 -.21338 .08806 -1.00388 1201.143 2458.218)"/><rect x="719" y="200" width="13" height="33" fill="#3D2C8D" rx="0" transform="matrix(-.82168 .54873 -.55712 -.84497 1460.15 -87.747)"/><rect x="80" y="570" width="12" height="22" fill="#1C0C5B" rx="0" transform="matrix(-.73697 .42365 -.78 -.90852 793.295 1078.43)"/><rect x="710" y="1337" width="7" height="19" fill="#3D2C8D" rx="0" transform="matrix(.83764 .81977 -.56542 .64047 931.344 103.793)"/><rect x="945" y="813" width="12" height="15" fill="#C996CC" rx="0" transform="matrix(.13585 1.01231 -.99021 -.01767 1839.08 -278.333)"/><rect x="615" y="982" width="7" height="18" fill="#1C0C5B" rx="0" transform="matrix(1.01846 .29255 -.08699 .95689 316.488 -159.816)"/><rect x="375" y="1010" width="11" height="15" fill="#3D2C8D" rx="0" transform="matrix(-.95394 .07083 -.47578 -1.01295 1477.98 2088.32)"/><rect x="740" y="1081" width="11" height="17" fill="#3D2C8D" rx="0" transform="matrix(.86178 .60218 -.51701 .79912 815.79 -256.104)"/><rect x="1697" y="1240" width="9" height="20" fill="#3D2C8D" rx="0" transform="matrix(-.73135 .56616 -.682 -.83937 3798.396 1605.379)"/><rect x="1215" y="999" width="10" height="13" fill="#1C0C5B" rx="0" transform="matrix(.72943 .80951 -.70535 .58814 1186.628 -530.877)"/><rect x="629" y="791" width="7" height="11" fill="#C996CC" rx="0" transform="matrix(.53846 1.00552 -.82989 .30742 917.936 121.163)"/><rect x="1525" y="180" width="13" height="23" fill="#916BBF" rx="0" transform="matrix(-.96876 .07131 -.16845 -1.01985 2993.067 603.113)"/><rect x="876" y="597" width="12" height="12" fill="#1C0C5B" rx="0" transform="matrix(-.42246 .82228 -.92032 -.57577 1950.459 147.77)"/><rect x="1076" y="1268" width="9" height="13" fill="#1C0C5B" rx="0" transform="matrix(-.7555 .39222 -.7697 -.92402 3322.638 2122.899)"/><rect x="947" y="1202" width="9" height="22" fill="#3D2C8D" rx="0" transform="matrix(-.1165 .9974 -.98416 -.15797 2446.444 321.874)"/><rect x="77" y="649" width="7" height="14" fill="#C996CC" rx="0" transform="matrix(-.1214 .98083 -.98702 -.26281 714.353 763.642)"/><rect x="1054" y="539" width="7" height="7" fill="#916BBF" rx="0" transform="matrix(-.70117 .50936 -.74879 -.88223 2283.832 688.023)"/><rect x="668" y="781" width="13" height="24" fill="#C996CC" rx="0" transform="matrix(-.04365 .92502 -1.05687 -.51274 1686.126 807.932)"/><rect x="445" y="1010" width="8" height="19" fill="#916BBF" rx="0" transform="matrix(-.93373 .39367 -.34049 -.92742 1282.81 1733.116)"/><rect x="491" y="353" width="12" height="30" fill="#1C0C5B" rx="0" transform="matrix(.56124 1.03134 -.92051 .09023 663.341 -44.608)"/><rect x="1847" y="303" width="8" height="18" fill="#1C0C5B" rx="0" transform="matrix(.84958 .58814 -.53092 .80951 457.236 -964.582)"/><rect x="1328" y="38" width="9" height="12" fill="#916BBF" rx="0" transform="matrix(-1.02985 -.28982 -.14113 -1.01073 2761.118 907.616)"/><rect x="1261" y="805" width="12" height="20" fill="#3D2C8D" rx="0" transform="matrix(-.53332 .92558 -.85403 -.39288 2603.013 -170.671)"/><rect x="1631" y="824" width="9" height="11" fill="#C996CC" rx="0" transform="matrix(-.66945 .34433 -.95999 -1 4006.222 1659)"/><rect x="55" y="911" width="8" height="9" fill="#1C0C5B" rx="0" transform="matrix(.29233 .96656 -.95078 .27716 1023.837 598.536)"/><rect x="412" y="841" width="7" height="17" fill="#C996CC" rx="0" transform="matrix(-.86364 .39127 -.5212 -.92177 1377.989 1448.195)"/><rect x="1409" y="369" width="13" height="14" fill="#3D2C8D" rx="0" transform="matrix(.9789 .71242 -.42477 .71242 336.896 -726.494)"/><rect x="1590" y="1247" width="13" height="31" fill="#1C0C5B" rx="0" transform="matrix(1.01143 .38039 -.12554 .94149 275.337 -251.907)"/><rect x="1567" y="441" width="9" height="13" fill="#3D2C8D" rx="0" transform="matrix(.9849 .31378 -.15569 .96573 148.763 -754.873)"/><rect x="1104" y="529" width="10" height="29" fill="#1C0C5B" rx="0" transform="matrix(-.78128 .70808 -.631 -.70808 2223.098 201.203)"/><rect x="1326" y="1069" width="9" height="17" fill="#C996CC" rx="0" transform="matrix(.12288 1.01367 -1.00598 -.16055 2323.516 208.976)"/><rect x="1509" y="1164" width="13" height="35" fill="#3D2C8D" rx="0" transform="matrix(-.36149 .83745 -.94098 -.58639 3227.611 927.29)"/><rect x="1627" y="699" width="13" height="34" fill="#3D2C8D" rx="0" transform="matrix(.51332 .95105 -.85442 .36508 1388.72 -781.42)"/><rect x="1345" y="807" width="12" height="13" fill="#3D2C8D" rx="0" transform="matrix(.29646 1.0275 -.92629 .16274 1556.57 -319.636)"/><rect x="1643" y="1309" width="7" height="9" fill="#3D2C8D" rx="0" transform="matrix(.8141 .42789 -.59124 .9176 1045.919 -857.069)"/><rect x="1569" y="869" width="8" height="22" fill="#C996CC" rx="0" transform="matrix(-.5788 .73147 -.82737 -.6821 3346.58 302.199)"/><rect x="1843" y="1077" width="11" height="27" fill="#916BBF" rx="0" transform="matrix(.52265 .7283 -.86833 .70332 1773.52 -1315.516)"/></svg>