<svg version="1.1"
      xmlns="http://www.w3.org/2000/svg"
      xmlns:xlink="http://www.w3.org/1999/xlink"  id="snapshot-32128" width="250" height="250" viewBox="0 0 250 250"><desc>This image was made on Patterninja.com</desc><defs>
<!-- image 26364 -->
<g id="transformed-26364" data-image="26364" transform="translate(138.90927796562548, 161.9092779656255) rotate(5, 22.090722034374522, 22.090722034374508)"><g><svg version="1.1" width="44.181444068749045px" height="44.181444068749016px" viewBox="0 0 44.181444068749045 44.181444068749016"><g id="original-26364"><svg xmlns="http://www.w3.org/2000/svg" fill="currentColor" viewBox="0 0 16 16" xmlns:xlink="http://www.w3.org/1999/xlink" version="1.1" preserveAspectRatio="xMidYMid meet">
  <path d="M15.5 8.516a7.5 7.5 0 1 1-9.462-7.24A1 1 0 0 1 7 0h2a1 1 0 0 1 .962 1.276 7.503 7.503 0 0 1 5.538 7.24m-3.61-3.905L6.94 7.439 4.11 12.39l4.95-2.828 2.828-4.95z" fill="rgba(53, 47, 105, 1)" stroke="none"/>
</svg>
</g></svg></g></g>
<!-- /image 26364 -->

<!-- image 76403 -->
<g id="transformed-76403" data-image="76403" transform="translate(88, 17.00000000000001) rotate(0, 21, 20.99999999999999)"><g><svg version="1.1" width="42px" height="41.99999999999998px" viewBox="0 0 42 41.99999999999998"><g id="original-76403"><svg xmlns="http://www.w3.org/2000/svg" fill="currentColor" viewBox="0 0 16 16" xmlns:xlink="http://www.w3.org/1999/xlink" version="1.1" preserveAspectRatio="xMidYMid meet">
  <path d="M6.5 6a.5.5 0 0 0-.5.5v3a.5.5 0 0 0 .5.5h3a.5.5 0 0 0 .5-.5v-3a.5.5 0 0 0-.5-.5z" fill="rgba(53, 47, 105, 1)" stroke="none"/>
  <path d="M5.5.5a.5.5 0 0 0-1 0V2A2.5 2.5 0 0 0 2 4.5H.5a.5.5 0 0 0 0 1H2v1H.5a.5.5 0 0 0 0 1H2v1H.5a.5.5 0 0 0 0 1H2v1H.5a.5.5 0 0 0 0 1H2A2.5 2.5 0 0 0 4.5 14v1.5a.5.5 0 0 0 1 0V14h1v1.5a.5.5 0 0 0 1 0V14h1v1.5a.5.5 0 0 0 1 0V14h1v1.5a.5.5 0 0 0 1 0V14a2.5 2.5 0 0 0 2.5-2.5h1.5a.5.5 0 0 0 0-1H14v-1h1.5a.5.5 0 0 0 0-1H14v-1h1.5a.5.5 0 0 0 0-1H14v-1h1.5a.5.5 0 0 0 0-1H14A2.5 2.5 0 0 0 11.5 2V.5a.5.5 0 0 0-1 0V2h-1V.5a.5.5 0 0 0-1 0V2h-1V.5a.5.5 0 0 0-1 0V2h-1zm1 4.5h3A1.5 1.5 0 0 1 11 6.5v3A1.5 1.5 0 0 1 9.5 11h-3A1.5 1.5 0 0 1 5 9.5v-3A1.5 1.5 0 0 1 6.5 5" fill="rgba(53, 47, 105, 1)" stroke="none"/>
</svg>
</g></svg></g></g>
<!-- /image 76403 -->

<!-- image 20626 -->
<g id="transformed-20626" data-image="20626" transform="translate(-9.021728866442675, 216.9782711335573) rotate(2, 23.021728866442675, 23.021728866442672)"><g><svg version="1.1" width="46.04345773288535px" height="46.043457732885344px" viewBox="0 0 46.04345773288535 46.043457732885344"><g id="original-20626"><svg xmlns="http://www.w3.org/2000/svg" fill="currentColor" viewBox="0 0 16 16" xmlns:xlink="http://www.w3.org/1999/xlink" version="1.1" preserveAspectRatio="xMidYMid meet">
  <path d="M10.478 1.647a.5.5 0 1 0-.956-.294l-4 13a.5.5 0 0 0 .956.294l4-13zM4.854 4.146a.5.5 0 0 1 0 .708L1.707 8l3.147 3.146a.5.5 0 0 1-.708.708l-3.5-3.5a.5.5 0 0 1 0-.708l3.5-3.5a.5.5 0 0 1 .708 0zm6.292 0a.5.5 0 0 0 0 .708L14.293 8l-3.147 3.146a.5.5 0 0 0 .708.708l3.5-3.5a.5.5 0 0 0 0-.708l-3.5-3.5a.5.5 0 0 0-.708 0z" fill="rgba(53, 47, 105, 1)" stroke="none"/>
</svg>
</g></svg></g></g>
<!-- /image 20626 -->

<!-- image 07368 -->
<g id="transformed-07368" data-image="07368" transform="translate(185.97728445445478, 63.977284454454775) rotate(2, 22.02271554554524, 22.02271554554523)"><g><svg version="1.1" width="44.04543109109048px" height="44.04543109109046px" viewBox="0 0 44.04543109109048 44.04543109109046"><g id="original-07368"><svg xmlns="http://www.w3.org/2000/svg" fill="currentColor" viewBox="0 0 16 16" xmlns:xlink="http://www.w3.org/1999/xlink" version="1.1" preserveAspectRatio="xMidYMid meet">
  <path d="M7.068.727c.243-.97 1.62-.97 1.864 0l.071.286a.96.96 0 0 0 1.622.434l.205-.211c.695-.719 1.888-.03 1.613.931l-.08.284a.96.96 0 0 0 1.187 1.187l.283-.081c.96-.275 1.65.918.931 1.613l-.211.205a.96.96 0 0 0 .434 1.622l.286.071c.97.243.97 1.62 0 1.864l-.286.071a.96.96 0 0 0-.434 1.622l.211.205c.719.695.03 1.888-.931 1.613l-.284-.08a.96.96 0 0 0-1.187 1.187l.081.283c.275.96-.918 1.65-1.613.931l-.205-.211a.96.96 0 0 0-1.622.434l-.071.286c-.243.97-1.62.97-1.864 0l-.071-.286a.96.96 0 0 0-1.622-.434l-.205.211c-.695.719-1.888.03-1.613-.931l.08-.284a.96.96 0 0 0-1.186-1.187l-.284.081c-.96.275-1.65-.918-.931-1.613l.211-.205a.96.96 0 0 0-.434-1.622l-.286-.071c-.97-.243-.97-1.62 0-1.864l.286-.071a.96.96 0 0 0 .434-1.622l-.211-.205c-.719-.695-.03-1.888.931-1.613l.284.08a.96.96 0 0 0 1.187-1.186l-.081-.284c-.275-.96.918-1.65 1.613-.931l.205.211a.96.96 0 0 0 1.622-.434l.071-.286zM12.973 8.5H8.25l-2.834 3.779A4.998 4.998 0 0 0 12.973 8.5m0-1a4.998 4.998 0 0 0-7.557-3.779l2.834 3.78h4.723zM5.048 3.967c-.03.021-.058.043-.087.065zm-.431.355A4.984 4.984 0 0 0 3.002 8c0 1.455.622 2.765 1.615 3.678L7.375 8zm.344 7.646l.087.065z" fill="rgba(53, 47, 105, 1)" stroke="none"/>
</svg>
</g></svg></g></g>
<!-- /image 07368 -->

<!-- image 30259 -->
<g id="transformed-30259" data-image="30259" transform="translate(37.00000000000004, 117) rotate(0, 21.99999999999996, 22)"><g><svg version="1.1" width="43.99999999999992px" height="44px" viewBox="0 0 43.99999999999992 44"><g id="original-30259"><svg xmlns="http://www.w3.org/2000/svg" fill="currentColor" viewBox="0 0 16 16" xmlns:xlink="http://www.w3.org/1999/xlink" version="1.1" preserveAspectRatio="xMidYMid meet">
  <path d="M4.978.855a.5.5 0 1 0-.956.29l.41 1.352A4.985 4.985 0 0 0 3 6h10a4.985 4.985 0 0 0-1.432-3.503l.41-1.352a.5.5 0 1 0-.956-.29l-.291.956A4.978 4.978 0 0 0 8 1a4.979 4.979 0 0 0-2.731.811l-.29-.956z" fill="rgba(53, 47, 105, 1)" stroke="none"/>
  <path d="M13 6v1H8.5v8.975A5 5 0 0 0 13 11h.5a.5.5 0 0 1 .5.5v.5a.5.5 0 1 0 1 0v-.5a1.5 1.5 0 0 0-1.5-1.5H13V9h1.5a.5.5 0 0 0 0-1H13V7h.5A1.5 1.5 0 0 0 15 5.5V5a.5.5 0 0 0-1 0v.5a.5.5 0 0 1-.5.5zm-5.5 9.975V7H3V6h-.5a.5.5 0 0 1-.5-.5V5a.5.5 0 0 0-1 0v.5A1.5 1.5 0 0 0 2.5 7H3v1H1.5a.5.5 0 0 0 0 1H3v1h-.5A1.5 1.5 0 0 0 1 11.5v.5a.5.5 0 1 0 1 0v-.5a.5.5 0 0 1 .5-.5H3a5 5 0 0 0 4.5 4.975" fill="rgba(53, 47, 105, 1)" stroke="none"/>
</svg>
</g></svg></g></g>
<!-- /image 30259 -->
</defs><rect x="0" y="0" width="250" height="250" fill="rgba(228, 251, 255, 0)"></rect><use xlink:href="#transformed-26364" transform="translate(-250, -250)"></use><use xlink:href="#transformed-26364" transform="translate(0, -250)"></use><use xlink:href="#transformed-26364" transform="translate(250, -250)"></use><use xlink:href="#transformed-26364" transform="translate(-250, 0)"></use><use xlink:href="#transformed-26364" transform="translate(0, 0)"></use><use xlink:href="#transformed-26364" transform="translate(250, 0)"></use><use xlink:href="#transformed-26364" transform="translate(-250, 250)"></use><use xlink:href="#transformed-26364" transform="translate(0, 250)"></use><use xlink:href="#transformed-26364" transform="translate(250, 250)"></use><use xlink:href="#transformed-76403" transform="translate(-250, -250)"></use><use xlink:href="#transformed-76403" transform="translate(0, -250)"></use><use xlink:href="#transformed-76403" transform="translate(250, -250)"></use><use xlink:href="#transformed-76403" transform="translate(-250, 0)"></use><use xlink:href="#transformed-76403" transform="translate(0, 0)"></use><use xlink:href="#transformed-76403" transform="translate(250, 0)"></use><use xlink:href="#transformed-76403" transform="translate(-250, 250)"></use><use xlink:href="#transformed-76403" transform="translate(0, 250)"></use><use xlink:href="#transformed-76403" transform="translate(250, 250)"></use><use xlink:href="#transformed-20626" transform="translate(-250, -250)"></use><use xlink:href="#transformed-20626" transform="translate(0, -250)"></use><use xlink:href="#transformed-20626" transform="translate(250, -250)"></use><use xlink:href="#transformed-20626" transform="translate(-250, 0)"></use><use xlink:href="#transformed-20626" transform="translate(0, 0)"></use><use xlink:href="#transformed-20626" transform="translate(250, 0)"></use><use xlink:href="#transformed-20626" transform="translate(-250, 250)"></use><use xlink:href="#transformed-20626" transform="translate(0, 250)"></use><use xlink:href="#transformed-20626" transform="translate(250, 250)"></use><use xlink:href="#transformed-07368" transform="translate(-250, -250)"></use><use xlink:href="#transformed-07368" transform="translate(0, -250)"></use><use xlink:href="#transformed-07368" transform="translate(250, -250)"></use><use xlink:href="#transformed-07368" transform="translate(-250, 0)"></use><use xlink:href="#transformed-07368" transform="translate(0, 0)"></use><use xlink:href="#transformed-07368" transform="translate(250, 0)"></use><use xlink:href="#transformed-07368" transform="translate(-250, 250)"></use><use xlink:href="#transformed-07368" transform="translate(0, 250)"></use><use xlink:href="#transformed-07368" transform="translate(250, 250)"></use><use xlink:href="#transformed-30259" transform="translate(-250, -250)"></use><use xlink:href="#transformed-30259" transform="translate(0, -250)"></use><use xlink:href="#transformed-30259" transform="translate(250, -250)"></use><use xlink:href="#transformed-30259" transform="translate(-250, 0)"></use><use xlink:href="#transformed-30259" transform="translate(0, 0)"></use><use xlink:href="#transformed-30259" transform="translate(250, 0)"></use><use xlink:href="#transformed-30259" transform="translate(-250, 250)"></use><use xlink:href="#transformed-30259" transform="translate(0, 250)"></use><use xlink:href="#transformed-30259" transform="translate(250, 250)"></use></svg>